<svg width="512" height="512" xmlns="http://www.w3.org/2000/svg" xmlns:svg="http://www.w3.org/2000/svg">
 <g class="layer">
  <title>Layer 1</title>
  <g id="svg_1">
   <g id="svg_2">
    <path d="m393.382,269.713l-171.728,0c-4.142,0 -7.5,3.358 -7.5,7.5s3.358,7.5 7.5,7.5l171.728,0c4.142,0 7.5,-3.358 7.5,-7.5s-3.358,-7.5 -7.5,-7.5z" fill="#ffffff" id="svg_3"/>
    <path d="m393.382,302.039l-171.728,0c-4.142,0 -7.5,3.358 -7.5,7.5s3.358,7.5 7.5,7.5l171.728,0c4.142,0 7.5,-3.358 7.5,-7.5s-3.358,-7.5 -7.5,-7.5z" fill="#ffffff" id="svg_4"/>
    <path d="m393.382,334.364l-171.728,0c-4.142,0 -7.5,3.358 -7.5,7.5s3.358,7.5 7.5,7.5l171.728,0c4.142,0 7.5,-3.358 7.5,-7.5s-3.358,-7.5 -7.5,-7.5z" fill="#ffffff" id="svg_5"/>
    <path d="m393.382,366.689l-171.728,0c-4.142,0 -7.5,3.358 -7.5,7.5s3.358,7.5 7.5,7.5l171.728,0c4.142,0 7.5,-3.358 7.5,-7.5s-3.358,-7.5 -7.5,-7.5z" fill="#ffffff" id="svg_6"/>
    <path d="m393.382,399.014l-171.728,0c-4.142,0 -7.5,3.358 -7.5,7.5s3.358,7.5 7.5,7.5l171.728,0c4.142,0 7.5,-3.358 7.5,-7.5s-3.358,-7.5 -7.5,-7.5z" fill="#ffffff" id="svg_7"/>
    <path d="m393.382,431.339l-171.728,0c-4.142,0 -7.5,3.358 -7.5,7.5s3.358,7.5 7.5,7.5l171.728,0c4.142,0 7.5,-3.358 7.5,-7.5s-3.358,-7.5 -7.5,-7.5z" fill="#ffffff" id="svg_8"/>
    <path d="m39.825,478.665l353.557,0c4.142,0 7.5,-3.358 7.5,-7.5s-3.358,-7.5 -7.5,-7.5l-353.557,0c-4.142,0 -7.5,3.358 -7.5,7.5s3.358,7.5 7.5,7.5z" fill="#ffffff" id="svg_9"/>
    <path d="m32.325,438.839c0,4.142 3.358,7.5 7.5,7.5l141.423,0c4.142,0 7.5,-3.358 7.5,-7.5l0,-161.626c0,-4.142 -3.358,-7.5 -7.5,-7.5l-141.423,0c-4.142,0 -7.5,3.358 -7.5,7.5l0,161.626zm15,-154.126l126.423,0l0,146.626l-126.423,0l0,-146.626z" fill="#ffffff" id="svg_10"/>
    <path d="m400.882,101.445c0,-4.142 -3.358,-7.5 -7.5,-7.5l-353.557,0c-4.142,0 -7.5,3.358 -7.5,7.5l0,135.362c0,4.142 3.358,7.5 7.5,7.5l353.557,0c4.142,0 7.5,-3.358 7.5,-7.5l0,-135.362zm-15,127.862l-338.557,0l0,-120.362l338.557,0l0,120.362z" fill="#ffffff" id="svg_11"/>
    <path d="m69.425,211.982c4.142,0 7.5,-3.358 7.5,-7.5l0,-46.521l34.052,49.31c2.257,3.261 6.002,4.653 9.537,3.548c3.621,-1.131 5.961,-4.554 5.96,-8.793l-0.661,-68.328c-0.04,-4.118 -3.39,-7.428 -7.498,-7.428c-0.024,0 -0.049,0 -0.074,0c-4.142,0.04 -7.467,3.43 -7.427,7.572l0.459,47.461l-35.678,-51.664c-1.865,-2.701 -5.269,-3.875 -8.403,-2.898s-5.268,3.878 -5.268,7.16l0,70.58c0.001,4.143 3.359,7.501 7.501,7.501z" fill="#ffffff" id="svg_12"/>
    <path d="m150.687,211.982l29.795,0c4.142,0 7.5,-3.358 7.5,-7.5s-3.358,-7.5 -7.5,-7.5l-22.295,0l0,-20.356l20.098,0c4.142,0 7.5,-3.358 7.5,-7.5s-3.358,-7.5 -7.5,-7.5l-20.098,0l0,-20.355l22.295,0c4.142,0 7.5,-3.358 7.5,-7.5s-3.358,-7.5 -7.5,-7.5l-29.795,0c-4.142,0 -7.5,3.358 -7.5,7.5l0,70.711c0,4.142 3.358,7.5 7.5,7.5z" fill="#ffffff" id="svg_13"/>
    <path d="m342.505,211.982c14.252,0 26.212,-9.045 28.437,-21.507c1.665,-9.326 -2.636,-21.533 -19.701,-27.828c-8.901,-3.283 -17.171,-6.863 -19.478,-7.875c-1.827,-1.396 -2.708,-3.585 -2.369,-5.952c0.216,-1.502 1.287,-5.167 6.563,-6.757c10.692,-3.218 20.457,4.552 20.694,4.745c3.171,2.637 7.879,2.219 10.535,-0.942c2.665,-3.17 2.255,-7.901 -0.916,-10.567c-0.645,-0.542 -16.008,-13.21 -34.64,-7.598c-9.258,2.789 -15.804,10.064 -17.085,18.988c-1.197,8.341 2.417,16.363 9.432,20.936c0.331,0.216 0.679,0.406 1.04,0.566c0.408,0.182 10.106,4.499 21.032,8.529c7.221,2.664 10.912,6.716 10.125,11.118c-0.803,4.495 -6.135,9.144 -13.67,9.144c-7.399,0 -14.534,-2.998 -19.084,-8.019c-2.782,-3.069 -7.524,-3.303 -10.594,-0.521c-3.069,2.782 -3.302,7.524 -0.521,10.594c7.348,8.107 18.637,12.946 30.2,12.946z" fill="#ffffff" id="svg_14"/>
    <path d="m219.227,204.875c0.071,0.358 0.167,0.71 0.29,1.054c1.288,3.626 4.727,6.052 8.571,6.052l0.061,0c3.869,-0.026 7.305,-2.504 8.551,-6.167c0.022,-0.065 0.043,-0.131 0.064,-0.197l14.35,-46.362l14.286,46.373c0.031,0.102 0.065,0.204 0.101,0.304c1.289,3.625 4.728,6.049 8.571,6.049l0.062,0c3.868,-0.026 7.304,-2.505 8.549,-6.167c0.106,-0.311 0.191,-0.629 0.255,-0.951l13.832,-69.499c0.808,-4.062 -1.83,-8.011 -5.892,-8.82c-4.061,-0.806 -8.011,1.829 -8.82,5.892l-9.227,46.364l-14.553,-47.238l-0.043,0.013c-0.731,-2.233 -2.491,-4.092 -4.907,-4.84c-3.957,-1.223 -8.157,0.99 -9.382,4.947l-14.586,47.123l-9.196,-46.49c-0.804,-4.064 -4.754,-6.707 -8.812,-5.902c-4.063,0.804 -6.706,4.75 -5.902,8.812l13.777,69.65z" fill="#ffffff" id="svg_15"/>
    <path d="m485.787,0.018c-0.17,-0.007 -0.824,-0.018 -0.987,-0.018l-138.21,0c-4.142,0 -7.5,3.358 -7.5,7.5s3.358,7.5 7.5,7.5l113.903,0c-1.85,3.671 -2.893,7.816 -2.893,12.2l0,170.3c0,4.142 3.358,7.5 7.5,7.5s7.5,-3.358 7.5,-7.5l0,-170.3c-0.051,-6.594 5.645,-12.292 12.429,-12.212c6.319,0.081 11.966,5.868 11.971,12.682l0,438.93c0,16.763 -14.309,30.4 -31.896,30.4c-0.001,0 -0.001,0 -0.002,0s-0.001,0 -0.002,0c-17.584,0 -31.89,-13.637 -31.89,-30.4l0,-56.63l11.69,0c15.274,0 27.7,-12.426 27.7,-27.7l0,-149.77c0,-4.142 -3.358,-7.5 -7.5,-7.5s-7.5,3.358 -7.5,7.5l0,149.77c0,7.003 -5.697,12.7 -12.7,12.7l-11.69,0l0,-304.64c0,-15.274 -12.431,-27.7 -27.71,-27.7l-349.08,0l0,-35.43c0,-6.727 5.468,-12.2 12.19,-12.2l242.98,0c4.142,0 7.5,-3.358 7.5,-7.5s-3.358,-7.5 -7.5,-7.5l-242.98,0c-14.993,0 -27.19,12.202 -27.19,27.2l0,35.43l-13.72,0c-15.274,0 -27.7,12.426 -27.7,27.7l0,221.14c0,4.142 3.358,7.5 7.5,7.5s7.5,-3.358 7.5,-7.5l0,-221.14c0,-7.003 5.697,-12.7 12.7,-12.7l377.8,0c7.008,0 12.71,5.697 12.71,12.7l0,376.27c0,11.681 4.58,22.346 12.093,30.4l-383.403,0c-17.59,0 -31.9,-13.637 -31.9,-30.4l0,-120.13c0,-4.142 -3.358,-7.5 -7.5,-7.5s-7.5,3.358 -7.5,7.5l0,120.13c0,25.034 21.039,45.4 46.9,45.4l418.2,0l0.002,0s0.001,0 0.002,0c25.858,0 46.896,-20.367 46.896,-45.4l0,-438.93c0,-14.983 -11.515,-27.13 -26.213,-27.652z" fill="#ffffff" id="svg_16"/>
   </g>
  </g>
 </g>

</svg>